<svg xmlns="http://www.w3.org/2000/svg" version="1.1" xmlns:xlink="http://www.w3.org/1999/xlink" xmlns:svgjs="http://svgjs.dev/svgjs" viewBox="0 0 800 800" opacity="1"><defs><symbol id="bbburst-shape-4" viewBox="0 0 149 143"><path d="M71.647 2.781c.898-2.764 4.808-2.764 5.706 0l15.445 47.534a3 3 0 0 0 2.853 2.073h49.98c2.906 0 4.115 3.719 1.764 5.427L106.96 87.193a2.999 2.999 0 0 0-1.09 3.354l15.445 47.534c.898 2.764-2.266 5.062-4.617 3.354l-40.435-29.378a3 3 0 0 0-3.526 0l-40.435 29.378c-2.351 1.708-5.515-.59-4.617-3.354L43.13 90.547a3 3 0 0 0-1.09-3.354L1.605 57.815c-2.35-1.708-1.142-5.427 1.764-5.427h49.98a3 3 0 0 0 2.853-2.073L71.647 2.781Z"></path></symbol><symbol id="bbburst-shape-6" viewBox="0 0 133 116"><path d="M59.7487 10.2513c-13.6683-13.66839-35.8291-13.66839-49.4974 0-13.66839 13.6683-13.66839 35.8291 0 49.4974l49.4974-49.4974ZM66.5 66.5 41.7513 91.2487 66.5 115.997l24.7487-24.7483L66.5 66.5Zm56.249-6.7513c13.668-13.6683 13.668-35.8291 0-49.4974-13.669-13.66839-35.8294-13.66839-49.4977 0l49.4977 49.4974Zm-112.4977 0 31.5 31.5 49.4974-49.4974-31.5-31.5-49.4974 49.4974Zm80.9974 31.5 31.5003-31.5-49.4977-49.4974-31.5 31.5 49.4974 49.4974Z"></path></symbol><symbol id="bbburst-shape-7" viewBox="0 0 139 124"><path fill-rule="evenodd" clip-rule="evenodd" d="M70.1641 15.0917C54.6093.764854 37.8293-2.10782 24.4032 2.82615 10.3804 7.97941.763366 21.4591 1.00047 37.0608c.1068 7.0273 2.86132 13.7317 7.0039 20.2001C12.1442 63.7249 17.853 70.2322 24.25 76.9024c3.8209 3.9842 7.8871 8.0312 12.0767 12.201h.0001c10.0335 9.9862 20.7748 20.6766 30.5497 32.8956 1.38 1.725 3.8972 2.005 5.6223.624.6706-.536 1.1228-1.244 1.3439-2.011 9.5768-11.748 20.0328-22.0735 29.8163-31.7351 4.19-4.1373 8.256-8.1528 12.078-12.1062 6.396-6.6176 12.106-13.0752 16.247-19.4911 4.144-6.4196 6.905-13.0811 7.012-20.0691.237-15.5124-9.399-28.8902-23.411-33.99923-13.32-4.85681-29.9542-2.08621-45.4209 11.88043Zm-3.7351 7.4919C52.1278 8.44857 37.6826 6.46918 27.1626 10.3352 16.2859 14.3323 8.8148 24.7824 8.99955 36.9392c.07575 4.9844 2.03755 10.2234 5.74165 16.0072 3.707 5.7881 8.9752 11.8418 15.2827 18.4187 3.5798 3.7328 7.4978 7.6329 11.6 11.7163 9.0476 9.0063 18.9911 18.9046 28.1786 29.8666 9.2999-11.068 19.4036-21.0473 28.5839-30.1144l.0007-.0006c4.1019-4.0508 8.0189-7.9196 11.5979-11.6222 6.307-6.5252 11.573-12.5298 15.278-18.2697 3.703-5.7362 5.658-10.924 5.734-15.8531.184-12.0276-7.267-22.3914-18.153-26.3608-10.71-3.90518-25.4722-1.80041-40.0023 12.867-1.5547 1.5694-4.0874 1.5813-5.6568.0265-.3146-.3116-.5666-.6625-.7559-1.0371Z"></path></symbol><symbol id="bbburst-shape-12" viewBox="0 0 170 151"><path d="M69.3728 54.2122 85 10.0031l15.627 44.2091c1.413 3.9958 5.19 6.6672 9.428 6.6673h49.312l-39.149 26.1447c-3.803 2.5401-5.399 7.3367-3.875 11.6488l15.179 42.94-40.9683-27.36c-3.3621-2.245-7.7453-2.245-11.1074 0l-40.9682 27.36 15.1785-42.94c1.5243-4.3121-.0712-9.1087-3.8746-11.6488L10.6333 60.8795h49.3112c4.2381-.0001 8.0159-2.6715 9.4283-6.6673Z" stroke-width="12"></path></symbol></defs><use xlink:href="#bbburst-shape-6" width="67.0870028325391" opacity="0.09009105722716881" transform="matrix(0.7926081644178566,-0.6097313323900584,0.6097313323900584,0.7926081644178566,456.0342564785853,251.23543872627533)" fill="#e8888c"></use><use xlink:href="#bbburst-shape-6" width="46.203091204499245" opacity="0.2301958161194826" transform="matrix(0.9483829180711856,-0.3171274833734579,0.3171274833734579,0.9483829180711856,590.0358110649195,-155.7412789583578)" fill="#e8888c"></use><use xlink:href="#bbburst-shape-12" width="55.06144001150942" opacity="0.289656857452122" transform="matrix(0.7124101844465088,-0.7017632999073771,0.7017632999073771,0.7124101844465088,131.58143700060975,298.19034080603956)" fill="none" stroke="#eaaeb0"></use><use xlink:href="#bbburst-shape-6" width="18.689680093512465" opacity="0.8023821022758428" transform="matrix(0.8563785829359302,0.5163484508436605,-0.5163484508436605,0.8563785829359302,394.76226071586046,-323.9606342028061)" fill="#ffbd9b"></use><use xlink:href="#bbburst-shape-7" width="41.501620450463506" opacity="0.20221412930321025" transform="matrix(0.8089184632488735,-0.5879208448550544,0.5879208448550544,0.8089184632488735,15.071109838990054,440.43438170130804)" fill="#ffbd9b"></use><use xlink:href="#bbburst-shape-7" width="40.46233721801769" opacity="0.5161022186647253" transform="matrix(0.7400223377805975,-0.672582292054838,0.672582292054838,0.7400223377805975,72.43928874101545,44.828065311939895)" fill="#fff1f1"></use><use xlink:href="#bbburst-shape-6" width="14.136317059188848" opacity="0.9198364324126447" transform="matrix(0.9776980626633193,-0.21001547148815553,0.21001547148815553,0.9776980626633193,-13.385728416474237,-369.2194217977972)" fill="#eaaeb0"></use><use xlink:href="#bbburst-shape-7" width="59.878535497826626" opacity="0.17562265077734374" transform="matrix(0.939794025819896,0.341741406670647,-0.341741406670647,0.939794025819896,839.7286560676043,-5.839831387610275)" fill="#ffbd9b"></use><use xlink:href="#bbburst-shape-6" width="26.39531946682676" opacity="0.6626180683455083" transform="matrix(0.7913494867811259,0.6113640402994345,-0.6113640402994345,0.7913494867811259,383.7025132980248,-22.207564413462023)" fill="#eaaeb0"></use><use xlink:href="#bbburst-shape-6" width="36.2494451826405" opacity="0.6119219500719425" transform="matrix(0.9174746450895023,-0.3977942629273226,0.3977942629273226,0.9174746450895023,191.36678511191255,-233.95266258947277)" fill="#ffc7c8"></use><use xlink:href="#bbburst-shape-6" width="56.25716421422236" opacity="-0.003209498350428941" transform="matrix(0.9448639706959142,0.3274630923947775,-0.3274630923947775,0.9448639706959142,802.8603887556385,332.9776783167581)" fill="#eaaeb0"></use><use xlink:href="#bbburst-shape-6" width="40.92025084685269" opacity="0.38673264200931456" transform="matrix(0.7464192583978544,-0.6654759880662842,0.6654759880662842,0.7464192583978544,3.1135001904585238,258.29203393023874)" fill="#eaaeb0"></use><use xlink:href="#bbburst-shape-6" width="27.03460000686749" opacity="0.7331579077974195" transform="matrix(0.9764178689818838,-0.2158891964246404,0.2158891964246404,0.9764178689818838,32.2518371954027,-155.6316177960423)" fill="#ffc7c8"></use><use xlink:href="#bbburst-shape-12" width="20.48597134161175" opacity="0.8459332990629849" transform="matrix(0.9603798687035907,0.27869429091546516,-0.27869429091546516,0.9603798687035907,233.25256184093627,-306.93269620687886)" fill="none" stroke="#e8888c"></use><use xlink:href="#bbburst-shape-7" width="21.389090754394786" opacity="0.6542862193720902" transform="matrix(0.8914570956731264,-0.4531051164730261,0.4531051164730261,0.8914570956731264,-162.25101556859272,-7.17957517628264)" fill="#ffc7c8"></use><use xlink:href="#bbburst-shape-6" width="24.77907215047798" opacity="0.7293500932264562" transform="matrix(0.7199206409302439,-0.6940563887484841,0.6940563887484841,0.7199206409302439,-92.67471393879433,-90.51218130949823)" fill="#ffc7c8"></use><use xlink:href="#bbburst-shape-6" width="41.93068148066392" opacity="0.5100218997619219" transform="matrix(0.738986128945493,0.6737206403444644,-0.6737206403444644,0.738986128945493,489.9160751230548,119.72226026134695)" fill="#e8888c"></use><use xlink:href="#bbburst-shape-6" width="41.13427374967084" opacity="0.44242668753208436" transform="matrix(0.8535056886281982,0.5210835244750166,-0.5210835244750166,0.8535056886281982,534.2194857930883,87.20460079295788)" fill="#fff1f1"></use><use xlink:href="#bbburst-shape-6" width="9.939557847231924" opacity="0.9493166462126782" transform="matrix(0.7858169037783997,0.6184592094359411,-0.6184592094359411,0.7858169037783997,290.3121133025232,-298.0251848712999)" fill="#ffbd9b"></use><use xlink:href="#bbburst-shape-12" width="35.9506542838634" opacity="0.45185498728959617" transform="matrix(0.9997543650596863,0.02216324759829764,-0.02216324759829764,0.9997543650596863,156.1299163752087,122.28245276645441)" fill="none" stroke="#fff1f1"></use><use xlink:href="#bbburst-shape-6" width="12.124859211146305" opacity="0.9256666914801828" transform="matrix(0.7110695549213749,-0.7031216737264737,0.7031216737264737,0.7110695549213749,-269.70247564165896,-207.54278178405303)" fill="#e8888c"></use><use xlink:href="#bbburst-shape-7" width="12.567545308071457" opacity="0.9794396140969858" transform="matrix(0.7804433232191114,-0.625226534339922,0.625226534339922,0.7804433232191114,-239.41374617415212,-294.8525720016265)" fill="#e8888c"></use><use xlink:href="#bbburst-shape-7" width="25.957922776159172" opacity="0.7016151617493855" transform="matrix(0.9979954306096485,0.0632860212231929,-0.0632860212231929,0.9979954306096485,96.25768817148966,-113.71345593597664)" fill="#eaaeb0"></use><use xlink:href="#bbburst-shape-7" width="37.02215373923284" opacity="0.5685110608794036" transform="matrix(0.9041856542667439,0.4271396757715446,-0.4271396757715446,0.9041856542667439,521.8970581425482,-144.17790116857586)" fill="#eaaeb0"></use><use xlink:href="#bbburst-shape-6" width="22.4344756196373" opacity="0.7398005939912318" transform="matrix(0.9559957370672242,0.29338055612002434,-0.29338055612002434,0.9559957370672242,365.5039874319568,-359.4741948856873)" fill="#eaaeb0"></use><use xlink:href="#bbburst-shape-6" width="20.269198258330864" opacity="0.7954818756236778" transform="matrix(0.9835476567667648,-0.18064884961882904,0.18064884961882904,0.9835476567667648,7.716774071419337,-207.90973931097355)" fill="#e8888c"></use><use xlink:href="#bbburst-shape-6" width="32.93625260835746" opacity="0.5640386896373675" transform="matrix(0.778258009532067,-0.6279446397567107,0.6279446397567107,0.778258009532067,169.64043979245685,-255.98013379779456)" fill="#eaaeb0"></use><use xlink:href="#bbburst-shape-7" width="26.85037416559868" opacity="0.591854261122575" transform="matrix(0.9803229060289349,-0.1974006076864611,0.1974006076864611,0.9803229060289349,78.85501315995697,-18.90536383561107)" fill="#eaaeb0"></use><use xlink:href="#bbburst-shape-7" width="19.263191119774284" opacity="0.8347786413688734" transform="matrix(0.9913669254012469,0.13111681517058912,-0.13111681517058912,0.9913669254012469,149.64368609028958,-271.77312169699064)" fill="#fff1f1"></use><use xlink:href="#bbburst-shape-4" width="32.587003160961046" opacity="0.6755697097146501" transform="matrix(0.9789675913237254,-0.2040158208027588,0.2040158208027588,0.9789675913237254,100.55496972942065,-131.3118043746245)" fill="#e8888c"></use><use xlink:href="#bbburst-shape-6" width="17.89715843204482" opacity="0.7816461089978047" transform="matrix(0.9700048743883272,-0.24308546575820944,0.24308546575820944,0.9700048743883272,31.577958746103562,-216.1966091839452)" fill="#eaaeb0"></use><use xlink:href="#bbburst-shape-4" width="35.04617380417477" opacity="0.4521589174721685" transform="matrix(0.9887410082921886,0.1496369557340239,-0.1496369557340239,0.9887410082921886,588.0053489988171,-347.2921013150825)" fill="#fff1f1"></use><use xlink:href="#bbburst-shape-4" width="56.718613611459084" opacity="0.3724259097324867" transform="matrix(0.9136697809466771,0.4064572934329646,-0.4064572934329646,0.9136697809466771,597.7537879203642,48.76735316149205)" fill="#ffc7c8"></use><use xlink:href="#bbburst-shape-12" width="32.88903809842556" opacity="0.524482510577183" transform="matrix(0.9989912015975447,-0.04490633731104877,0.04490633731104877,0.9989912015975447,417.379730170498,-250.53242847320203)" fill="none" stroke="#ffc7c8"></use><use xlink:href="#bbburst-shape-12" width="43.4254055014509" opacity="0.47229832722410425" transform="matrix(0.8345555140016429,0.5509238550375667,-0.5509238550375667,0.8345555140016429,255.6217811822916,179.15008997552684)" fill="none" stroke="#ffc7c8"></use><use xlink:href="#bbburst-shape-12" width="14.295506173458154" opacity="0.8684595698378277" transform="matrix(0.8288726931553753,-0.5594372695319424,0.5594372695319424,0.8288726931553753,-209.1690335610664,-197.64572118064984)" fill="none" stroke="#fff1f1"></use><use xlink:href="#bbburst-shape-6" width="49.946718677367194" opacity="0.33302577830611446" transform="matrix(0.7549964892171552,-0.6557288321171869,0.6557288321171869,0.7549964892171552,-97.03137284436221,355.4364144977348)" fill="#ffc7c8"></use><use xlink:href="#bbburst-shape-12" width="10.410310048406888" opacity="0.8962132522353873" transform="matrix(0.9997977038939777,-0.020113460376821594,0.020113460376821594,0.9997977038939777,13.561510332802072,-299.5693974421157)" fill="none" stroke="#fff1f1"></use><use xlink:href="#bbburst-shape-6" width="22.031316526426995" opacity="0.7580755885883446" transform="matrix(0.9079671137601245,-0.4190414303265359,0.4190414303265359,0.9079671137601245,-105.22975870874298,-127.73015142477001)" fill="#eaaeb0"></use><use xlink:href="#bbburst-shape-6" width="69.59774539774651" opacity="0.18240812299522202" transform="matrix(0.7315467802243473,0.6817912498290004,-0.6817912498290004,0.7315467802243473,822.9542523701008,264.2003883854899)" fill="#ffc7c8"></use><use xlink:href="#bbburst-shape-12" width="35.003814439840184" opacity="0.658944975846565" transform="matrix(0.9805854937807216,0.19609204315019632,-0.19609204315019632,0.9805854937807216,399.76408230353013,-353.87300937129817)" fill="none" stroke="#ffbd9b"></use><use xlink:href="#bbburst-shape-6" width="42.42691775668246" opacity="0.25231233114223983" transform="matrix(0.9174426681940171,-0.39786800647581927,0.39786800647581927,0.9174426681940171,163.9576575510291,306.0572605956643)" fill="#fff1f1"></use><use xlink:href="#bbburst-shape-12" width="16.371201073872847" opacity="0.8850982042595995" transform="matrix(0.9997985816651919,0.020069780772861395,-0.020069780772861395,0.9997985816651919,112.72755638534207,-378.6693171055871)" fill="none" stroke="#e8888c"></use><use xlink:href="#bbburst-shape-6" width="24.701389216068797" opacity="0.6677061851338426" transform="matrix(0.9835057717619136,0.1808767450807393,-0.1808767450807393,0.9835057717619136,356.00434624572654,-244.2387175238807)" fill="#eaaeb0"></use><use xlink:href="#bbburst-shape-6" width="21.52469803720948" opacity="0.7946940221199903" transform="matrix(0.9886921349031399,-0.1499595358110698,0.1499595358110698,0.9886921349031399,94.25672401540994,-271.5322006421253)" fill="#e8888c"></use><use xlink:href="#bbburst-shape-12" width="21.75750235114932" opacity="0.7893467623822011" transform="matrix(0.7074408543630792,0.7067725501022493,-0.7067725501022493,0.7074408543630792,471.71552796494666,-215.23552343707405)" fill="none" stroke="#eaaeb0"></use><use xlink:href="#bbburst-shape-12" width="36.28055632471476" opacity="0.24923306929427969" transform="matrix(0.7658778447870351,-0.6429861016105761,0.6429861016105761,0.7658778447870351,-184.70608155220344,451.03852036613324)" fill="none" stroke="#ffc7c8"></use><use xlink:href="#bbburst-shape-7" width="45.30147162639195" opacity="0.35295815991780743" transform="matrix(0.9960920336961242,-0.08832134740321444,0.08832134740321444,0.9960920336961242,580.6456605630566,-292.86990522530414)" fill="#ffc7c8"></use><use xlink:href="#bbburst-shape-6" width="18.527325546948322" opacity="0.8471559711372953" transform="matrix(0.9675882305044915,0.2525331981922118,-0.2525331981922118,0.9675882305044915,241.62913421309463,-357.952687052516)" fill="#ffc7c8"></use><use xlink:href="#bbburst-shape-7" width="13.358552378803749" opacity="0.9541795264875699" transform="matrix(0.906055748166353,-0.42315834059452284,0.42315834059452284,0.906055748166353,-157.30079255175667,-317.4682766335145)" fill="#eaaeb0"></use><use xlink:href="#bbburst-shape-6" width="41.22738515780575" opacity="0.4286078159975397" transform="matrix(0.9866267797976389,-0.1629956974467162,0.1629956974467162,0.9866267797976389,456.07106853767715,-209.21736971008826)" fill="#eaaeb0"></use><use xlink:href="#bbburst-shape-6" width="49.969216693241314" opacity="0.2779254857883612" transform="matrix(0.9997672888475713,0.02157239324639374,-0.02157239324639374,0.9997672888475713,572.904670364146,16.892333204908425)" fill="#ffbd9b"></use><use xlink:href="#bbburst-shape-7" width="63.720633406847085" opacity="0.3238938559511978" transform="matrix(0.9654323526474679,-0.2606537405478294,0.2606537405478294,0.9654323526474679,483.1625892739035,-104.5348516137359)" fill="#e8888c"></use><use xlink:href="#bbburst-shape-6" width="53.48358301427889" opacity="0.25768580717036105" transform="matrix(0.995002870994242,0.09984631547140717,-0.09984631547140717,0.995002870994242,752.8856604794049,-336.7313897314742)" fill="#eaaeb0"></use><use xlink:href="#bbburst-shape-6" width="15.710374402370672" opacity="0.9203324221037774" transform="matrix(0.8115277412246028,-0.5843138927176849,0.5843138927176849,0.8115277412246028,-188.0693875886521,-259.69094185328913)" fill="#eaaeb0"></use><use xlink:href="#bbburst-shape-6" width="35.27141072847939" opacity="0.6441491496216077" transform="matrix(0.843253082745776,-0.5375167331718571,0.5375167331718571,0.843253082745776,41.187987008908976,-97.27175425715103)" fill="#ffc7c8"></use><use xlink:href="#bbburst-shape-7" width="36.55139857620939" opacity="0.6310547465678868" transform="matrix(0.7580779330758755,-0.6521639727732654,0.6521639727732654,0.7580779330758755,-183.99326437620664,66.35275480865164)" fill="#e8888c"></use><use xlink:href="#bbburst-shape-7" width="41.815117751812096" opacity="0.5864995043703136" transform="matrix(0.7790038301424268,0.62701916447859,-0.62701916447859,0.7790038301424268,489.4187586053793,0.6907870555516524)" fill="#e8888c"></use><use xlink:href="#bbburst-shape-7" width="17.206617216527345" opacity="0.8895427137268864" transform="matrix(0.8219093618762593,-0.5696182940006055,0.5696182940006055,0.8219093618762593,-143.15799962978463,-262.42476204655253)" fill="#e8888c"></use><use xlink:href="#bbburst-shape-7" width="31.014368139847164" opacity="0.7182007266936364" transform="matrix(0.9956886517117091,-0.09275833575759587,0.09275833575759587,0.9956886517117091,216.44660095947856,-313.2008456127255)" fill="#fff1f1"></use><use xlink:href="#bbburst-shape-7" width="20.449218002647054" opacity="0.7167019713357392" transform="matrix(0.8753591798702174,-0.4834731701107522,0.4834731701107522,0.8753591798702174,-175.39818996593462,-63.163189126120926)" fill="#ffbd9b"></use><use xlink:href="#bbburst-shape-12" width="52.9027565379489" opacity="0.4429972696272464" transform="matrix(0.9561715137581317,-0.2928071656867074,0.2928071656867074,0.9561715137581317,332.9953547634323,-84.624892397216)" fill="none" stroke="#e8888c"></use><use xlink:href="#bbburst-shape-12" width="52.42696619967761" opacity="0.36580542305935293" transform="matrix(0.836711054835291,-0.547644602563026,0.547644602563026,0.836711054835291,-184.82100960743736,311.28938707165537)" fill="none" stroke="#ffc7c8"></use><use xlink:href="#bbburst-shape-6" width="18.307673965302577" opacity="0.8781624211221112" transform="matrix(0.9800122365576072,-0.1989372167226548,0.1989372167226548,0.9800122365576072,-18.660685316053545,-290.3814750747646)" fill="#ffc7c8"></use><use xlink:href="#bbburst-shape-12" width="20.604930653771202" opacity="0.8410868746936522" transform="matrix(0.9496797435231769,-0.3132225801913922,0.3132225801913922,0.9496797435231769,-73.31865032916156,-230.26206059746752)" fill="none" stroke="#e8888c"></use><use xlink:href="#bbburst-shape-6" width="49.90502846614767" opacity="0.12037662790829384" transform="matrix(0.8547793760445814,-0.5189915397083426,0.5189915397083426,0.8547793760445814,262.7444841585104,400.4209311442515)" fill="#fff1f1"></use><use xlink:href="#bbburst-shape-6" width="25.710802283865338" opacity="0.7341271179968252" transform="matrix(0.8941910690672723,0.44768552802199085,-0.44768552802199085,0.8941910690672723,394.4924060270839,-224.8721563681516)" fill="#e8888c"></use><use xlink:href="#bbburst-shape-6" width="33.31713345981839" opacity="0.5449751027650037" transform="matrix(0.9921189965776439,0.1252992283686096,-0.1252992283686096,0.9921189965776439,151.72309961129577,40.48872337931522)" fill="#ffc7c8"></use><use xlink:href="#bbburst-shape-6" width="12.170678000843921" opacity="0.8028615496334339" transform="matrix(0.990841052217562,-0.1350333634343546,0.1350333634343546,0.990841052217562,-25.16487828582777,-201.48598092049403)" fill="#ffc7c8"></use><use xlink:href="#bbburst-shape-12" width="21.23700641155439" opacity="0.7661227109021493" transform="matrix(0.9050917361529179,0.42521635569166055,-0.42521635569166055,0.9050917361529179,182.00970084975495,-133.7013507630052)" fill="none" stroke="#fff1f1"></use><use xlink:href="#bbburst-shape-12" width="30.90008157331567" opacity="0.5707264843464135" transform="matrix(0.9824231174975604,0.1866676678120094,-0.1866676678120094,0.9824231174975604,94.72471608760372,31.917490337205663)" fill="none" stroke="#e8888c"></use><use xlink:href="#bbburst-shape-7" width="13.045680353305288" opacity="0.8341535341209307" transform="matrix(0.8989635196664899,-0.43802350428811054,0.43802350428811054,0.8989635196664899,-162.696628856828,-191.89131949540766)" fill="#fff1f1"></use></svg>