<?xml version="1.0" encoding="UTF-8"?>
<svg version="1.1" xmlns="http://www.w3.org/2000/svg" width="1342" height="1342">
<path d="M0 0 C442.86 0 885.72 0 1342 0 C1342 442.86 1342 885.72 1342 1342 C899.14 1342 456.28 1342 0 1342 C0 899.14 0 456.28 0 0 Z " fill="#FFFFFF" transform="translate(0,0)"/>
<path d="M0 0 C36.3 0 72.6 0 110 0 C110 7.26 110 14.52 110 22 C124.52 22 139.04 22 154 22 C154 29.26 154 36.52 154 44 C161.26 44 168.52 44 176 44 C176 51.26 176 58.52 176 66 C183.26 66 190.52 66 198 66 C198 73.26 198 80.52 198 88 C219.78 88 241.56 88 264 88 C264 80.74 264 73.48 264 66 C271.26 66 278.52 66 286 66 C286 58.74 286 51.48 286 44 C293.26 44 300.52 44 308 44 C308 36.74 308 29.48 308 22 C322.52 22 337.04 22 352 22 C352 14.74 352 7.48 352 0 C388.3 0 424.6 0 462 0 C462 7.26 462 14.52 462 22 C476.52 22 491.04 22 506 22 C506 29.26 506 36.52 506 44 C513.26 44 520.52 44 528 44 C528 51.26 528 58.52 528 66 C535.26 66 542.52 66 550 66 C550 124.08 550 182.16 550 242 C557.26 242 564.52 242 572 242 C572 249.26 572 256.52 572 264 C579.26 264 586.52 264 594 264 C594 271.26 594 278.52 594 286 C601.26 286 608.52 286 616 286 C616 293.26 616 300.52 616 308 C623.26 308 630.52 308 638 308 C638 322.52 638 337.04 638 352 C630.74 352 623.48 352 616 352 C616 359.26 616 366.52 616 374 C594.22 374 572.44 374 550 374 C550 395.78 550 417.56 550 440 C542.74 440 535.48 440 528 440 C528 447.26 528 454.52 528 462 C520.74 462 513.48 462 506 462 C506 454.74 506 447.48 506 440 C498.74 440 491.48 440 484 440 C484 432.74 484 425.48 484 418 C476.74 418 469.48 418 462 418 C462 410.74 462 403.48 462 396 C454.74 396 447.48 396 440 396 C440 388.74 440 381.48 440 374 C432.74 374 425.48 374 418 374 C418 366.74 418 359.48 418 352 C410.74 352 403.48 352 396 352 C396 337.48 396 322.96 396 308 C388.74 308 381.48 308 374 308 C374 300.74 374 293.48 374 286 C359.48 286 344.96 286 330 286 C330 278.74 330 271.48 330 264 C322.74 264 315.48 264 308 264 C308 256.74 308 249.48 308 242 C300.74 242 293.48 242 286 242 C286 234.74 286 227.48 286 220 C278.74 220 271.48 220 264 220 C264 212.74 264 205.48 264 198 C242.22 198 220.44 198 198 198 C198 205.26 198 212.52 198 220 C190.74 220 183.48 220 176 220 C176 227.26 176 234.52 176 242 C168.74 242 161.48 242 154 242 C154 249.26 154 256.52 154 264 C146.74 264 139.48 264 132 264 C132 271.26 132 278.52 132 286 C117.48 286 102.96 286 88 286 C88 293.26 88 300.52 88 308 C80.74 308 73.48 308 66 308 C66 322.52 66 337.04 66 352 C58.74 352 51.48 352 44 352 C44 359.26 44 366.52 44 374 C36.74 374 29.48 374 22 374 C22 381.26 22 388.52 22 396 C14.74 396 7.48 396 0 396 C0 403.26 0 410.52 0 418 C-7.26 418 -14.52 418 -22 418 C-22 425.26 -22 432.52 -22 440 C-29.26 440 -36.52 440 -44 440 C-44 447.26 -44 454.52 -44 462 C-51.26 462 -58.52 462 -66 462 C-66 454.74 -66 447.48 -66 440 C-73.26 440 -80.52 440 -88 440 C-88 418.22 -88 396.44 -88 374 C-109.78 374 -131.56 374 -154 374 C-154 366.74 -154 359.48 -154 352 C-161.26 352 -168.52 352 -176 352 C-176 337.48 -176 322.96 -176 308 C-168.74 308 -161.48 308 -154 308 C-154 300.74 -154 293.48 -154 286 C-146.74 286 -139.48 286 -132 286 C-132 278.74 -132 271.48 -132 264 C-124.74 264 -117.48 264 -110 264 C-110 256.74 -110 249.48 -110 242 C-102.74 242 -95.48 242 -88 242 C-88 183.92 -88 125.84 -88 66 C-80.74 66 -73.48 66 -66 66 C-66 58.74 -66 51.48 -66 44 C-58.74 44 -51.48 44 -44 44 C-44 36.74 -44 29.48 -44 22 C-29.48 22 -14.96 22 0 22 C0 14.74 0 7.48 0 0 Z " fill="#EAAEB0" transform="translate(440,418)"/>
<path d="M0 0 C7.26 0 14.52 0 22 0 C22 58.08 22 116.16 22 176 C29.26 176 36.52 176 44 176 C44 183.26 44 190.52 44 198 C51.26 198 58.52 198 66 198 C66 205.26 66 212.52 66 220 C73.26 220 80.52 220 88 220 C88 227.26 88 234.52 88 242 C95.26 242 102.52 242 110 242 C110 256.52 110 271.04 110 286 C102.74 286 95.48 286 88 286 C88 293.26 88 300.52 88 308 C66.22 308 44.44 308 22 308 C22 329.78 22 351.56 22 374 C14.74 374 7.48 374 0 374 C0 381.26 0 388.52 0 396 C-7.26 396 -14.52 396 -22 396 C-22 388.74 -22 381.48 -22 374 C-29.26 374 -36.52 374 -44 374 C-44 366.74 -44 359.48 -44 352 C-51.26 352 -58.52 352 -66 352 C-66 344.74 -66 337.48 -66 330 C-73.26 330 -80.52 330 -88 330 C-88 322.74 -88 315.48 -88 308 C-95.26 308 -102.52 308 -110 308 C-110 300.74 -110 293.48 -110 286 C-117.26 286 -124.52 286 -132 286 C-132 271.48 -132 256.96 -132 242 C-139.26 242 -146.52 242 -154 242 C-154 234.74 -154 227.48 -154 220 C-168.52 220 -183.04 220 -198 220 C-198 212.74 -198 205.48 -198 198 C-205.26 198 -212.52 198 -220 198 C-220 190.74 -220 183.48 -220 176 C-227.26 176 -234.52 176 -242 176 C-242 161.48 -242 146.96 -242 132 C-205.7 132 -169.4 132 -132 132 C-132 139.26 -132 146.52 -132 154 C-117.48 154 -102.96 154 -88 154 C-88 161.26 -88 168.52 -88 176 C-80.74 176 -73.48 176 -66 176 C-66 183.26 -66 190.52 -66 198 C-44.22 198 -22.44 198 0 198 C0 132.66 0 67.32 0 0 Z " fill="#FFC7C8" transform="translate(968,484)"/>
<path d="M0 0 C36.3 0 72.6 0 110 0 C110 7.26 110 14.52 110 22 C124.52 22 139.04 22 154 22 C154 29.26 154 36.52 154 44 C161.26 44 168.52 44 176 44 C176 116.6 176 189.2 176 264 C154.22 264 132.44 264 110 264 C110 256.74 110 249.48 110 242 C102.74 242 95.48 242 88 242 C88 234.74 88 227.48 88 220 C73.48 220 58.96 220 44 220 C44 212.74 44 205.48 44 198 C29.48 198 14.96 198 0 198 C0 190.74 0 183.48 0 176 C-21.78 176 -43.56 176 -66 176 C-66 168.74 -66 161.48 -66 154 C-29.7 154 6.6 154 44 154 C44 139.48 44 124.96 44 110 C22.22 110 0.44 110 -22 110 C-22 117.26 -22 124.52 -22 132 C-36.52 132 -51.04 132 -66 132 C-66 124.74 -66 117.48 -66 110 C-73.26 110 -80.52 110 -88 110 C-88 95.48 -88 80.96 -88 66 C-80.74 66 -73.48 66 -66 66 C-66 58.74 -66 51.48 -66 44 C-58.74 44 -51.48 44 -44 44 C-44 36.74 -44 29.48 -44 22 C-29.48 22 -14.96 22 0 22 C0 14.74 0 7.48 0 0 Z " fill="#FFC7C8" transform="translate(792,418)"/>
<path d="M0 0 C36.3 0 72.6 0 110 0 C110 7.26 110 14.52 110 22 C124.52 22 139.04 22 154 22 C154 29.26 154 36.52 154 44 C161.26 44 168.52 44 176 44 C176 51.26 176 58.52 176 66 C183.26 66 190.52 66 198 66 C198 80.52 198 95.04 198 110 C190.74 110 183.48 110 176 110 C176 117.26 176 124.52 176 132 C161.48 132 146.96 132 132 132 C132 124.74 132 117.48 132 110 C110.22 110 88.44 110 66 110 C66 124.52 66 139.04 66 154 C102.3 154 138.6 154 176 154 C176 161.26 176 168.52 176 176 C154.22 176 132.44 176 110 176 C110 183.26 110 190.52 110 198 C95.48 198 80.96 198 66 198 C66 205.26 66 212.52 66 220 C51.48 220 36.96 220 22 220 C22 227.26 22 234.52 22 242 C14.74 242 7.48 242 0 242 C0 249.26 0 256.52 0 264 C-21.78 264 -43.56 264 -66 264 C-66 191.4 -66 118.8 -66 44 C-58.74 44 -51.48 44 -44 44 C-44 36.74 -44 29.48 -44 22 C-29.48 22 -14.96 22 0 22 C0 14.74 0 7.48 0 0 Z " fill="#FFC7C8" transform="translate(440,418)"/>
<path d="M0 0 C21.78 0 43.56 0 66 0 C66 7.26 66 14.52 66 22 C73.26 22 80.52 22 88 22 C88 29.26 88 36.52 88 44 C102.52 44 117.04 44 132 44 C132 36.74 132 29.48 132 22 C153.78 22 175.56 22 198 22 C198 36.52 198 51.04 198 66 C161.7 66 125.4 66 88 66 C88 73.26 88 80.52 88 88 C109.78 88 131.56 88 154 88 C154 95.26 154 102.52 154 110 C132.22 110 110.44 110 88 110 C88 117.26 88 124.52 88 132 C80.74 132 73.48 132 66 132 C66 124.74 66 117.48 66 110 C44.22 110 22.44 110 0 110 C0 117.26 0 124.52 0 132 C-7.26 132 -14.52 132 -22 132 C-22 124.74 -22 117.48 -22 110 C-43.78 110 -65.56 110 -88 110 C-88 102.74 -88 95.48 -88 88 C-66.22 88 -44.44 88 -22 88 C-22 80.74 -22 73.48 -22 66 C-58.3 66 -94.6 66 -132 66 C-132 51.48 -132 36.96 -132 22 C-110.22 22 -88.44 22 -66 22 C-66 29.26 -66 36.52 -66 44 C-51.48 44 -36.96 44 -22 44 C-22 36.74 -22 29.48 -22 22 C-14.74 22 -7.48 22 0 22 C0 14.74 0 7.48 0 0 Z " fill="#B48174" transform="translate(638,506)"/>
<path d="M0 0 C36.3 0 72.6 0 110 0 C110 7.26 110 14.52 110 22 C124.52 22 139.04 22 154 22 C154 43.78 154 65.56 154 88 C146.74 88 139.48 88 132 88 C132 95.26 132 102.52 132 110 C124.74 110 117.48 110 110 110 C110 117.26 110 124.52 110 132 C102.74 132 95.48 132 88 132 C88 139.26 88 146.52 88 154 C80.74 154 73.48 154 66 154 C66 161.26 66 168.52 66 176 C58.74 176 51.48 176 44 176 C44 168.74 44 161.48 44 154 C36.74 154 29.48 154 22 154 C22 124.96 22 95.92 22 66 C7.48 66 -7.04 66 -22 66 C-22 51.48 -22 36.96 -22 22 C-14.74 22 -7.48 22 0 22 C0 14.74 0 7.48 0 0 Z " fill="#FFC7C8" transform="translate(330,704)"/>
<path d="M0 0 C14.52 0 29.04 0 44 0 C44 7.26 44 14.52 44 22 C51.26 22 58.52 22 66 22 C66 14.74 66 7.48 66 0 C80.52 0 95.04 0 110 0 C110 7.26 110 14.52 110 22 C117.26 22 124.52 22 132 22 C132 43.78 132 65.56 132 88 C124.74 88 117.48 88 110 88 C110 95.26 110 102.52 110 110 C102.74 110 95.48 110 88 110 C88 117.26 88 124.52 88 132 C66.22 132 44.44 132 22 132 C22 124.74 22 117.48 22 110 C14.74 110 7.48 110 0 110 C0 102.74 0 95.48 0 88 C-7.26 88 -14.52 88 -22 88 C-22 66.22 -22 44.44 -22 22 C-14.74 22 -7.48 22 0 22 C0 14.74 0 7.48 0 0 Z " fill="#FFC7C8" transform="translate(616,704)"/>
<path d="M0 0 C7.26 0 14.52 0 22 0 C22 65.34 22 130.68 22 198 C43.78 198 65.56 198 88 198 C88 205.26 88 212.52 88 220 C51.7 220 15.4 220 -22 220 C-22 227.26 -22 234.52 -22 242 C-29.26 242 -36.52 242 -44 242 C-44 256.52 -44 271.04 -44 286 C-29.48 286 -14.96 286 0 286 C0 293.26 0 300.52 0 308 C-21.78 308 -43.56 308 -66 308 C-66 300.74 -66 293.48 -66 286 C-73.26 286 -80.52 286 -88 286 C-88 271.48 -88 256.96 -88 242 C-80.74 242 -73.48 242 -66 242 C-66 234.74 -66 227.48 -66 220 C-58.74 220 -51.48 220 -44 220 C-44 212.74 -44 205.48 -44 198 C-36.74 198 -29.48 198 -22 198 C-22 190.74 -22 183.48 -22 176 C-14.74 176 -7.48 176 0 176 C0 117.92 0 59.84 0 0 Z " fill="#FFF1F1" transform="translate(352,484)"/>
<path d="M0 0 C36.3 0 72.6 0 110 0 C110 7.26 110 14.52 110 22 C124.52 22 139.04 22 154 22 C154 29.26 154 36.52 154 44 C161.26 44 168.52 44 176 44 C176 58.52 176 73.04 176 88 C132.44 88 88.88 88 44 88 C44 80.74 44 73.48 44 66 C36.74 66 29.48 66 22 66 C22 58.74 22 51.48 22 44 C14.74 44 7.48 44 0 44 C0 29.48 0 14.96 0 0 Z " fill="#FFF1F1" transform="translate(726,616)"/>
<path d="M0 0 C21.78 0 43.56 0 66 0 C66 7.26 66 14.52 66 22 C80.52 22 95.04 22 110 22 C110 14.74 110 7.48 110 0 C117.26 0 124.52 0 132 0 C132 21.78 132 43.56 132 66 C153.78 66 175.56 66 198 66 C198 73.26 198 80.52 198 88 C176.22 88 154.44 88 132 88 C132 95.26 132 102.52 132 110 C124.74 110 117.48 110 110 110 C110 102.74 110 95.48 110 88 C88.22 88 66.44 88 44 88 C44 80.74 44 73.48 44 66 C65.78 66 87.56 66 110 66 C110 58.74 110 51.48 110 44 C73.7 44 37.4 44 0 44 C0 29.48 0 14.96 0 0 Z " fill="#956750" transform="translate(506,528)"/>
<path d="M0 0 C36.3 0 72.6 0 110 0 C110 7.26 110 14.52 110 22 C124.52 22 139.04 22 154 22 C154 29.26 154 36.52 154 44 C103.18 44 52.36 44 0 44 C0 51.26 0 58.52 0 66 C-14.52 66 -29.04 66 -44 66 C-44 73.26 -44 80.52 -44 88 C-58.52 88 -73.04 88 -88 88 C-88 80.74 -88 73.48 -88 66 C-80.74 66 -73.48 66 -66 66 C-66 58.74 -66 51.48 -66 44 C-58.74 44 -51.48 44 -44 44 C-44 36.74 -44 29.48 -44 22 C-29.48 22 -14.96 22 0 22 C0 14.74 0 7.48 0 0 Z " fill="#FFF1F1" transform="translate(792,418)"/>
<path d="M0 0 C36.3 0 72.6 0 110 0 C110 7.26 110 14.52 110 22 C124.52 22 139.04 22 154 22 C154 29.26 154 36.52 154 44 C161.26 44 168.52 44 176 44 C176 51.26 176 58.52 176 66 C154.22 66 132.44 66 110 66 C110 58.74 110 51.48 110 44 C59.18 44 8.36 44 -44 44 C-44 36.74 -44 29.48 -44 22 C-29.48 22 -14.96 22 0 22 C0 14.74 0 7.48 0 0 Z " fill="#FFF1F1" transform="translate(440,418)"/>
<path d="M0 0 C21.78 0 43.56 0 66 0 C66 14.52 66 29.04 66 44 C29.7 44 -6.6 44 -44 44 C-44 58.52 -44 73.04 -44 88 C-51.26 88 -58.52 88 -66 88 C-66 73.48 -66 58.96 -66 44 C-73.26 44 -80.52 44 -88 44 C-88 36.74 -88 29.48 -88 22 C-58.96 22 -29.92 22 0 22 C0 14.74 0 7.48 0 0 Z " fill="#EAAEB0" transform="translate(902,682)"/>
<path d="M0 0 C14.52 0 29.04 0 44 0 C44 7.26 44 14.52 44 22 C51.26 22 58.52 22 66 22 C66 36.52 66 51.04 66 66 C58.74 66 51.48 66 44 66 C44 58.74 44 51.48 44 44 C36.74 44 29.48 44 22 44 C22 51.26 22 58.52 22 66 C14.74 66 7.48 66 0 66 C0 73.26 0 80.52 0 88 C-7.26 88 -14.52 88 -22 88 C-22 66.22 -22 44.44 -22 22 C-14.74 22 -7.48 22 0 22 C0 14.74 0 7.48 0 0 Z " fill="#FFF1F1" transform="translate(616,704)"/>
<path d="M0 0 C14.52 0 29.04 0 44 0 C44 7.26 44 14.52 44 22 C58.52 22 73.04 22 88 22 C88 29.26 88 36.52 88 44 C95.26 44 102.52 44 110 44 C110 51.26 110 58.52 110 66 C80.96 66 51.92 66 22 66 C22 58.74 22 51.48 22 44 C14.74 44 7.48 44 0 44 C0 29.48 0 14.96 0 0 Z " fill="#EAAEB0" transform="translate(792,616)"/>
<path d="M0 0 C7.26 0 14.52 0 22 0 C22 58.08 22 116.16 22 176 C29.26 176 36.52 176 44 176 C44 183.26 44 190.52 44 198 C29.48 198 14.96 198 0 198 C0 132.66 0 67.32 0 0 Z " fill="#956750" transform="translate(968,484)"/>
<path d="M0 0 C7.26 0 14.52 0 22 0 C22 65.34 22 130.68 22 198 C7.48 198 -7.04 198 -22 198 C-22 190.74 -22 183.48 -22 176 C-14.74 176 -7.48 176 0 176 C0 117.92 0 59.84 0 0 Z " fill="#956750" transform="translate(352,484)"/>
<path d="M0 0 C7.26 0 14.52 0 22 0 C22 65.34 22 130.68 22 198 C14.74 198 7.48 198 0 198 C0 132.66 0 67.32 0 0 Z " fill="#EAAEB0" transform="translate(946,462)"/>
<path d="M0 0 C7.26 0 14.52 0 22 0 C22 65.34 22 130.68 22 198 C14.74 198 7.48 198 0 198 C0 132.66 0 67.32 0 0 Z " fill="#EAAEB0" transform="translate(374,462)"/>
<path d="M0 0 C14.52 0 29.04 0 44 0 C44 29.04 44 58.08 44 88 C36.74 88 29.48 88 22 88 C22 80.74 22 73.48 22 66 C14.74 66 7.48 66 0 66 C0 44.22 0 22.44 0 0 Z " fill="#EAAEB0" transform="translate(352,792)"/>
<path d="M0 0 C14.52 0 29.04 0 44 0 C44 14.52 44 29.04 44 44 C58.52 44 73.04 44 88 44 C88 51.26 88 58.52 88 66 C66.22 66 44.44 66 22 66 C22 58.74 22 51.48 22 44 C14.74 44 7.48 44 0 44 C0 29.48 0 14.96 0 0 Z " fill="#FFF1F1" transform="translate(264,726)"/>
<path d="M0 0 C29.04 0 58.08 0 88 0 C88 7.26 88 14.52 88 22 C73.48 22 58.96 22 44 22 C44 36.52 44 51.04 44 66 C36.74 66 29.48 66 22 66 C22 51.48 22 36.96 22 22 C14.74 22 7.48 22 0 22 C0 14.74 0 7.48 0 0 Z " fill="#956750" transform="translate(814,704)"/>
<path d="M0 0 C29.04 0 58.08 0 88 0 C88 7.26 88 14.52 88 22 C80.74 22 73.48 22 66 22 C66 36.52 66 51.04 66 66 C58.74 66 51.48 66 44 66 C44 51.48 44 36.96 44 22 C29.48 22 14.96 22 0 22 C0 14.74 0 7.48 0 0 Z " fill="#956750" transform="translate(440,704)"/>
<path d="M0 0 C21.78 0 43.56 0 66 0 C66 14.52 66 29.04 66 44 C44.22 44 22.44 44 0 44 C0 29.48 0 14.96 0 0 Z " fill="#FFC7C8" transform="translate(638,550)"/>
<path d="M0 0 C21.78 0 43.56 0 66 0 C66 14.52 66 29.04 66 44 C44.22 44 22.44 44 0 44 C0 29.48 0 14.96 0 0 Z " fill="#EAAEB0" transform="translate(506,528)"/>
<path d="M0 0 C21.78 0 43.56 0 66 0 C66 14.52 66 29.04 66 44 C44.22 44 22.44 44 0 44 C0 29.48 0 14.96 0 0 Z " fill="#EAAEB0" transform="translate(638,506)"/>
<path d="M0 0 C36.3 0 72.6 0 110 0 C110 7.26 110 14.52 110 22 C73.7 22 37.4 22 0 22 C0 14.74 0 7.48 0 0 Z " fill="#956750" transform="translate(792,418)"/>
<path d="M0 0 C36.3 0 72.6 0 110 0 C110 7.26 110 14.52 110 22 C73.7 22 37.4 22 0 22 C0 14.74 0 7.48 0 0 Z " fill="#956750" transform="translate(440,418)"/>
<path d="M0 0 C29.04 0 58.08 0 88 0 C88 7.26 88 14.52 88 22 C58.96 22 29.92 22 0 22 C0 14.74 0 7.48 0 0 Z " fill="#FFF1F1" transform="translate(814,682)"/>
<path d="M0 0 C29.04 0 58.08 0 88 0 C88 7.26 88 14.52 88 22 C58.96 22 29.92 22 0 22 C0 14.74 0 7.48 0 0 Z " fill="#FFF1F1" transform="translate(440,682)"/>
<path d="M0 0 C21.78 0 43.56 0 66 0 C66 7.26 66 14.52 66 22 C51.48 22 36.96 22 22 22 C22 29.26 22 36.52 22 44 C14.74 44 7.48 44 0 44 C0 29.48 0 14.96 0 0 Z " fill="#EAAEB0" transform="translate(726,616)"/>
<path d="M0 0 C21.78 0 43.56 0 66 0 C66 7.26 66 14.52 66 22 C44.22 22 22.44 22 0 22 C0 14.74 0 7.48 0 0 Z " fill="#956750" transform="translate(638,814)"/>
<path d="M0 0 C7.26 0 14.52 0 22 0 C22 21.78 22 43.56 22 66 C14.74 66 7.48 66 0 66 C0 44.22 0 22.44 0 0 Z " fill="#956750" transform="translate(968,792)"/>
<path d="M0 0 C7.26 0 14.52 0 22 0 C22 21.78 22 43.56 22 66 C14.74 66 7.48 66 0 66 C0 44.22 0 22.44 0 0 Z " fill="#956750" transform="translate(352,792)"/>
<path d="M0 0 C21.78 0 43.56 0 66 0 C66 7.26 66 14.52 66 22 C44.22 22 22.44 22 0 22 C0 14.74 0 7.48 0 0 Z " fill="#956750" transform="translate(990,770)"/>
<path d="M0 0 C21.78 0 43.56 0 66 0 C66 7.26 66 14.52 66 22 C44.22 22 22.44 22 0 22 C0 14.74 0 7.48 0 0 Z " fill="#956750" transform="translate(286,770)"/>
<path d="M0 0 C7.26 0 14.52 0 22 0 C22 21.78 22 43.56 22 66 C14.74 66 7.48 66 0 66 C0 44.22 0 22.44 0 0 Z " fill="#FFF1F1" transform="translate(858,726)"/>
<path d="M0 0 C7.26 0 14.52 0 22 0 C22 21.78 22 43.56 22 66 C14.74 66 7.48 66 0 66 C0 44.22 0 22.44 0 0 Z " fill="#956750" transform="translate(726,726)"/>
<path d="M0 0 C7.26 0 14.52 0 22 0 C22 21.78 22 43.56 22 66 C14.74 66 7.48 66 0 66 C0 44.22 0 22.44 0 0 Z " fill="#956750" transform="translate(594,726)"/>
<path d="M0 0 C21.78 0 43.56 0 66 0 C66 7.26 66 14.52 66 22 C44.22 22 22.44 22 0 22 C0 14.74 0 7.48 0 0 Z " fill="#EAAEB0" transform="translate(374,704)"/>
<path d="M0 0 C21.78 0 43.56 0 66 0 C66 7.26 66 14.52 66 22 C44.22 22 22.44 22 0 22 C0 14.74 0 7.48 0 0 Z " fill="#FFF1F1" transform="translate(968,682)"/>
<path d="M0 0 C21.78 0 43.56 0 66 0 C66 7.26 66 14.52 66 22 C44.22 22 22.44 22 0 22 C0 14.74 0 7.48 0 0 Z " fill="#956750" transform="translate(902,682)"/>
<path d="M0 0 C21.78 0 43.56 0 66 0 C66 7.26 66 14.52 66 22 C44.22 22 22.44 22 0 22 C0 14.74 0 7.48 0 0 Z " fill="#956750" transform="translate(374,682)"/>
<path d="M0 0 C21.78 0 43.56 0 66 0 C66 7.26 66 14.52 66 22 C44.22 22 22.44 22 0 22 C0 14.74 0 7.48 0 0 Z " fill="#FFF1F1" transform="translate(902,660)"/>
<path d="M0 0 C21.78 0 43.56 0 66 0 C66 7.26 66 14.52 66 22 C44.22 22 22.44 22 0 22 C0 14.74 0 7.48 0 0 Z " fill="#FFF1F1" transform="translate(374,660)"/>
<path d="M0 0 C21.78 0 43.56 0 66 0 C66 7.26 66 14.52 66 22 C44.22 22 22.44 22 0 22 C0 14.74 0 7.48 0 0 Z " fill="#956750" transform="translate(726,594)"/>
<path d="M0 0 C21.78 0 43.56 0 66 0 C66 7.26 66 14.52 66 22 C44.22 22 22.44 22 0 22 C0 14.74 0 7.48 0 0 Z " fill="#956750" transform="translate(638,594)"/>
<path d="M0 0 C21.78 0 43.56 0 66 0 C66 7.26 66 14.52 66 22 C44.22 22 22.44 22 0 22 C0 14.74 0 7.48 0 0 Z " fill="#956750" transform="translate(550,594)"/>
<path d="M0 0 C21.78 0 43.56 0 66 0 C66 7.26 66 14.52 66 22 C44.22 22 22.44 22 0 22 C0 14.74 0 7.48 0 0 Z " fill="#FFF1F1" transform="translate(726,572)"/>
<path d="M0 0 C21.78 0 43.56 0 66 0 C66 7.26 66 14.52 66 22 C44.22 22 22.44 22 0 22 C0 14.74 0 7.48 0 0 Z " fill="#FFF1F1" transform="translate(550,572)"/>
<path d="M0 0 C21.78 0 43.56 0 66 0 C66 7.26 66 14.52 66 22 C44.22 22 22.44 22 0 22 C0 14.74 0 7.48 0 0 Z " fill="#956750" transform="translate(770,528)"/>
<path d="M0 0 C21.78 0 43.56 0 66 0 C66 7.26 66 14.52 66 22 C44.22 22 22.44 22 0 22 C0 14.74 0 7.48 0 0 Z " fill="#956750" transform="translate(506,528)"/>
<path d="M0 0 C21.78 0 43.56 0 66 0 C66 7.26 66 14.52 66 22 C44.22 22 22.44 22 0 22 C0 14.74 0 7.48 0 0 Z " fill="#EAAEB0" transform="translate(770,506)"/>
<path d="M0 0 C21.78 0 43.56 0 66 0 C66 7.26 66 14.52 66 22 C44.22 22 22.44 22 0 22 C0 14.74 0 7.48 0 0 Z " fill="#956750" transform="translate(638,506)"/>
<path d="M0 0 C21.78 0 43.56 0 66 0 C66 7.26 66 14.52 66 22 C44.22 22 22.44 22 0 22 C0 14.74 0 7.48 0 0 Z " fill="#EAAEB0" transform="translate(506,506)"/>
<path d="M0 0 C7.26 0 14.52 0 22 0 C22 14.52 22 29.04 22 44 C14.74 44 7.48 44 0 44 C0 29.48 0 14.96 0 0 Z " fill="#EAAEB0" transform="translate(946,792)"/>
<path d="M0 0 C14.52 0 29.04 0 44 0 C44 7.26 44 14.52 44 22 C29.48 22 14.96 22 0 22 C0 14.74 0 7.48 0 0 Z " fill="#EAAEB0" transform="translate(990,748)"/>
<path d="M0 0 C14.52 0 29.04 0 44 0 C44 7.26 44 14.52 44 22 C29.48 22 14.96 22 0 22 C0 14.74 0 7.48 0 0 Z " fill="#EAAEB0" transform="translate(308,748)"/>
<path d="M0 0 C7.26 0 14.52 0 22 0 C22 14.52 22 29.04 22 44 C14.74 44 7.48 44 0 44 C0 29.48 0 14.96 0 0 Z " fill="#956750" transform="translate(1056,726)"/>
<path d="M0 0 C7.26 0 14.52 0 22 0 C22 14.52 22 29.04 22 44 C14.74 44 7.48 44 0 44 C0 29.48 0 14.96 0 0 Z " fill="#FFF1F1" transform="translate(1034,726)"/>
<path d="M0 0 C7.26 0 14.52 0 22 0 C22 14.52 22 29.04 22 44 C14.74 44 7.48 44 0 44 C0 29.48 0 14.96 0 0 Z " fill="#956750" transform="translate(660,726)"/>
<path d="M0 0 C7.26 0 14.52 0 22 0 C22 14.52 22 29.04 22 44 C14.74 44 7.48 44 0 44 C0 29.48 0 14.96 0 0 Z " fill="#FFF1F1" transform="translate(462,726)"/>
<path d="M0 0 C7.26 0 14.52 0 22 0 C22 14.52 22 29.04 22 44 C14.74 44 7.48 44 0 44 C0 29.48 0 14.96 0 0 Z " fill="#956750" transform="translate(264,726)"/>
<path d="M0 0 C14.52 0 29.04 0 44 0 C44 7.26 44 14.52 44 22 C29.48 22 14.96 22 0 22 C0 14.74 0 7.48 0 0 Z " fill="#956750" transform="translate(682,704)"/>
<path d="M0 0 C14.52 0 29.04 0 44 0 C44 7.26 44 14.52 44 22 C29.48 22 14.96 22 0 22 C0 14.74 0 7.48 0 0 Z " fill="#956750" transform="translate(616,704)"/>
<path d="M0 0 C14.52 0 29.04 0 44 0 C44 7.26 44 14.52 44 22 C29.48 22 14.96 22 0 22 C0 14.74 0 7.48 0 0 Z " fill="#FFF1F1" transform="translate(286,704)"/>
<path d="M0 0 C14.52 0 29.04 0 44 0 C44 7.26 44 14.52 44 22 C29.48 22 14.96 22 0 22 C0 14.74 0 7.48 0 0 Z " fill="#956750" transform="translate(770,682)"/>
<path d="M0 0 C14.52 0 29.04 0 44 0 C44 7.26 44 14.52 44 22 C29.48 22 14.96 22 0 22 C0 14.74 0 7.48 0 0 Z " fill="#956750" transform="translate(528,682)"/>
<path d="M0 0 C14.52 0 29.04 0 44 0 C44 7.26 44 14.52 44 22 C29.48 22 14.96 22 0 22 C0 14.74 0 7.48 0 0 Z " fill="#FFF1F1" transform="translate(528,660)"/>
<path d="M0 0 C14.52 0 29.04 0 44 0 C44 7.26 44 14.52 44 22 C29.48 22 14.96 22 0 22 C0 14.74 0 7.48 0 0 Z " fill="#956750" transform="translate(836,638)"/>
<path d="M0 0 C14.52 0 29.04 0 44 0 C44 7.26 44 14.52 44 22 C29.48 22 14.96 22 0 22 C0 14.74 0 7.48 0 0 Z " fill="#956750" transform="translate(462,638)"/>
<path d="M0 0 C14.52 0 29.04 0 44 0 C44 7.26 44 14.52 44 22 C29.48 22 14.96 22 0 22 C0 14.74 0 7.48 0 0 Z " fill="#FFF1F1" transform="translate(836,616)"/>
<path d="M0 0 C14.52 0 29.04 0 44 0 C44 7.26 44 14.52 44 22 C29.48 22 14.96 22 0 22 C0 14.74 0 7.48 0 0 Z " fill="#956750" transform="translate(792,616)"/>
<path d="M0 0 C14.52 0 29.04 0 44 0 C44 7.26 44 14.52 44 22 C29.48 22 14.96 22 0 22 C0 14.74 0 7.48 0 0 Z " fill="#956750" transform="translate(506,616)"/>
<path d="M0 0 C14.52 0 29.04 0 44 0 C44 7.26 44 14.52 44 22 C29.48 22 14.96 22 0 22 C0 14.74 0 7.48 0 0 Z " fill="#FFF1F1" transform="translate(462,616)"/>
<path d="M0 0 C14.52 0 29.04 0 44 0 C44 7.26 44 14.52 44 22 C29.48 22 14.96 22 0 22 C0 14.74 0 7.48 0 0 Z " fill="#FFF1F1" transform="translate(792,594)"/>
<path d="M0 0 C14.52 0 29.04 0 44 0 C44 7.26 44 14.52 44 22 C29.48 22 14.96 22 0 22 C0 14.74 0 7.48 0 0 Z " fill="#FFF1F1" transform="translate(506,594)"/>
<path d="M0 0 C14.52 0 29.04 0 44 0 C44 7.26 44 14.52 44 22 C29.48 22 14.96 22 0 22 C0 14.74 0 7.48 0 0 Z " fill="#EAAEB0" transform="translate(726,528)"/>
<path d="M0 0 C14.52 0 29.04 0 44 0 C44 7.26 44 14.52 44 22 C29.48 22 14.96 22 0 22 C0 14.74 0 7.48 0 0 Z " fill="#EAAEB0" transform="translate(572,528)"/>
<path d="M0 0 C14.52 0 29.04 0 44 0 C44 7.26 44 14.52 44 22 C29.48 22 14.96 22 0 22 C0 14.74 0 7.48 0 0 Z " fill="#FFF1F1" transform="translate(704,484)"/>
<path d="M0 0 C14.52 0 29.04 0 44 0 C44 7.26 44 14.52 44 22 C29.48 22 14.96 22 0 22 C0 14.74 0 7.48 0 0 Z " fill="#FFF1F1" transform="translate(902,462)"/>
<path d="M0 0 C14.52 0 29.04 0 44 0 C44 7.26 44 14.52 44 22 C29.48 22 14.96 22 0 22 C0 14.74 0 7.48 0 0 Z " fill="#FFF1F1" transform="translate(396,462)"/>
<path d="M0 0 C14.52 0 29.04 0 44 0 C44 7.26 44 14.52 44 22 C29.48 22 14.96 22 0 22 C0 14.74 0 7.48 0 0 Z " fill="#956750" transform="translate(902,440)"/>
<path d="M0 0 C14.52 0 29.04 0 44 0 C44 7.26 44 14.52 44 22 C29.48 22 14.96 22 0 22 C0 14.74 0 7.48 0 0 Z " fill="#956750" transform="translate(748,440)"/>
<path d="M0 0 C14.52 0 29.04 0 44 0 C44 7.26 44 14.52 44 22 C29.48 22 14.96 22 0 22 C0 14.74 0 7.48 0 0 Z " fill="#956750" transform="translate(550,440)"/>
<path d="M0 0 C14.52 0 29.04 0 44 0 C44 7.26 44 14.52 44 22 C29.48 22 14.96 22 0 22 C0 14.74 0 7.48 0 0 Z " fill="#956750" transform="translate(396,440)"/>
<path d="M0 0 C7.26 0 14.52 0 22 0 C22 7.26 22 14.52 22 22 C14.74 22 7.48 22 0 22 C0 14.74 0 7.48 0 0 Z " fill="#956750" transform="translate(946,858)"/>
<path d="M0 0 C7.26 0 14.52 0 22 0 C22 7.26 22 14.52 22 22 C14.74 22 7.48 22 0 22 C0 14.74 0 7.48 0 0 Z " fill="#956750" transform="translate(374,858)"/>
<path d="M0 0 C7.26 0 14.52 0 22 0 C22 7.26 22 14.52 22 22 C14.74 22 7.48 22 0 22 C0 14.74 0 7.48 0 0 Z " fill="#FFF1F1" transform="translate(946,836)"/>
<path d="M0 0 C7.26 0 14.52 0 22 0 C22 7.26 22 14.52 22 22 C14.74 22 7.48 22 0 22 C0 14.74 0 7.48 0 0 Z " fill="#956750" transform="translate(924,836)"/>
<path d="M0 0 C7.26 0 14.52 0 22 0 C22 7.26 22 14.52 22 22 C14.74 22 7.48 22 0 22 C0 14.74 0 7.48 0 0 Z " fill="#956750" transform="translate(396,836)"/>
<path d="M0 0 C7.26 0 14.52 0 22 0 C22 7.26 22 14.52 22 22 C14.74 22 7.48 22 0 22 C0 14.74 0 7.48 0 0 Z " fill="#FFF1F1" transform="translate(374,836)"/>
<path d="M0 0 C7.26 0 14.52 0 22 0 C22 7.26 22 14.52 22 22 C14.74 22 7.48 22 0 22 C0 14.74 0 7.48 0 0 Z " fill="#FFF1F1" transform="translate(924,814)"/>
<path d="M0 0 C7.26 0 14.52 0 22 0 C22 7.26 22 14.52 22 22 C14.74 22 7.48 22 0 22 C0 14.74 0 7.48 0 0 Z " fill="#956750" transform="translate(902,814)"/>
<path d="M0 0 C7.26 0 14.52 0 22 0 C22 7.26 22 14.52 22 22 C14.74 22 7.48 22 0 22 C0 14.74 0 7.48 0 0 Z " fill="#956750" transform="translate(418,814)"/>
<path d="M0 0 C7.26 0 14.52 0 22 0 C22 7.26 22 14.52 22 22 C14.74 22 7.48 22 0 22 C0 14.74 0 7.48 0 0 Z " fill="#FFF1F1" transform="translate(396,814)"/>
<path d="M0 0 C7.26 0 14.52 0 22 0 C22 7.26 22 14.52 22 22 C14.74 22 7.48 22 0 22 C0 14.74 0 7.48 0 0 Z " fill="#FFF1F1" transform="translate(902,792)"/>
<path d="M0 0 C7.26 0 14.52 0 22 0 C22 7.26 22 14.52 22 22 C14.74 22 7.48 22 0 22 C0 14.74 0 7.48 0 0 Z " fill="#956750" transform="translate(880,792)"/>
<path d="M0 0 C7.26 0 14.52 0 22 0 C22 7.26 22 14.52 22 22 C14.74 22 7.48 22 0 22 C0 14.74 0 7.48 0 0 Z " fill="#956750" transform="translate(704,792)"/>
<path d="M0 0 C7.26 0 14.52 0 22 0 C22 7.26 22 14.52 22 22 C14.74 22 7.48 22 0 22 C0 14.74 0 7.48 0 0 Z " fill="#956750" transform="translate(616,792)"/>
<path d="M0 0 C7.26 0 14.52 0 22 0 C22 7.26 22 14.52 22 22 C14.74 22 7.48 22 0 22 C0 14.74 0 7.48 0 0 Z " fill="#956750" transform="translate(440,792)"/>
<path d="M0 0 C7.26 0 14.52 0 22 0 C22 7.26 22 14.52 22 22 C14.74 22 7.48 22 0 22 C0 14.74 0 7.48 0 0 Z " fill="#FFF1F1" transform="translate(418,792)"/>
<path d="M0 0 C7.26 0 14.52 0 22 0 C22 7.26 22 14.52 22 22 C14.74 22 7.48 22 0 22 C0 14.74 0 7.48 0 0 Z " fill="#EAAEB0" transform="translate(968,770)"/>
<path d="M0 0 C7.26 0 14.52 0 22 0 C22 7.26 22 14.52 22 22 C14.74 22 7.48 22 0 22 C0 14.74 0 7.48 0 0 Z " fill="#FFF1F1" transform="translate(880,770)"/>
<path d="M0 0 C7.26 0 14.52 0 22 0 C22 7.26 22 14.52 22 22 C14.74 22 7.48 22 0 22 C0 14.74 0 7.48 0 0 Z " fill="#956750" transform="translate(858,770)"/>
<path d="M0 0 C7.26 0 14.52 0 22 0 C22 7.26 22 14.52 22 22 C14.74 22 7.48 22 0 22 C0 14.74 0 7.48 0 0 Z " fill="#956750" transform="translate(462,770)"/>
<path d="M0 0 C7.26 0 14.52 0 22 0 C22 7.26 22 14.52 22 22 C14.74 22 7.48 22 0 22 C0 14.74 0 7.48 0 0 Z " fill="#FFF1F1" transform="translate(440,770)"/>
<path d="M0 0 C7.26 0 14.52 0 22 0 C22 7.26 22 14.52 22 22 C14.74 22 7.48 22 0 22 C0 14.74 0 7.48 0 0 Z " fill="#EAAEB0" transform="translate(352,770)"/>
<path d="M0 0 C7.26 0 14.52 0 22 0 C22 7.26 22 14.52 22 22 C14.74 22 7.48 22 0 22 C0 14.74 0 7.48 0 0 Z " fill="#EAAEB0" transform="translate(880,726)"/>
<path d="M0 0 C7.26 0 14.52 0 22 0 C22 7.26 22 14.52 22 22 C14.74 22 7.48 22 0 22 C0 14.74 0 7.48 0 0 Z " fill="#EAAEB0" transform="translate(440,726)"/>
<path d="M0 0 C7.26 0 14.52 0 22 0 C22 7.26 22 14.52 22 22 C14.74 22 7.48 22 0 22 C0 14.74 0 7.48 0 0 Z " fill="#956750" transform="translate(1034,704)"/>
<path d="M0 0 C7.26 0 14.52 0 22 0 C22 7.26 22 14.52 22 22 C14.74 22 7.48 22 0 22 C0 14.74 0 7.48 0 0 Z " fill="#FFF1F1" transform="translate(1012,704)"/>
<path d="M0 0 C7.26 0 14.52 0 22 0 C22 7.26 22 14.52 22 22 C14.74 22 7.48 22 0 22 C0 14.74 0 7.48 0 0 Z " fill="#956750" transform="translate(286,704)"/>
<path d="M0 0 C7.26 0 14.52 0 22 0 C22 7.26 22 14.52 22 22 C14.74 22 7.48 22 0 22 C0 14.74 0 7.48 0 0 Z " fill="#956750" transform="translate(1012,682)"/>
<path d="M0 0 C7.26 0 14.52 0 22 0 C22 7.26 22 14.52 22 22 C14.74 22 7.48 22 0 22 C0 14.74 0 7.48 0 0 Z " fill="#956750" transform="translate(308,682)"/>
<path d="M0 0 C7.26 0 14.52 0 22 0 C22 7.26 22 14.52 22 22 C14.74 22 7.48 22 0 22 C0 14.74 0 7.48 0 0 Z " fill="#956750" transform="translate(880,660)"/>
<path d="M0 0 C7.26 0 14.52 0 22 0 C22 7.26 22 14.52 22 22 C14.74 22 7.48 22 0 22 C0 14.74 0 7.48 0 0 Z " fill="#956750" transform="translate(748,660)"/>
<path d="M0 0 C7.26 0 14.52 0 22 0 C22 7.26 22 14.52 22 22 C14.74 22 7.48 22 0 22 C0 14.74 0 7.48 0 0 Z " fill="#956750" transform="translate(572,660)"/>
<path d="M0 0 C7.26 0 14.52 0 22 0 C22 7.26 22 14.52 22 22 C14.74 22 7.48 22 0 22 C0 14.74 0 7.48 0 0 Z " fill="#956750" transform="translate(440,660)"/>
<path d="M0 0 C7.26 0 14.52 0 22 0 C22 7.26 22 14.52 22 22 C14.74 22 7.48 22 0 22 C0 14.74 0 7.48 0 0 Z " fill="#FFF1F1" transform="translate(880,638)"/>
<path d="M0 0 C7.26 0 14.52 0 22 0 C22 7.26 22 14.52 22 22 C14.74 22 7.48 22 0 22 C0 14.74 0 7.48 0 0 Z " fill="#956750" transform="translate(726,638)"/>
<path d="M0 0 C7.26 0 14.52 0 22 0 C22 7.26 22 14.52 22 22 C14.74 22 7.48 22 0 22 C0 14.74 0 7.48 0 0 Z " fill="#956750" transform="translate(594,638)"/>
<path d="M0 0 C7.26 0 14.52 0 22 0 C22 7.26 22 14.52 22 22 C14.74 22 7.48 22 0 22 C0 14.74 0 7.48 0 0 Z " fill="#FFF1F1" transform="translate(572,638)"/>
<path d="M0 0 C7.26 0 14.52 0 22 0 C22 7.26 22 14.52 22 22 C14.74 22 7.48 22 0 22 C0 14.74 0 7.48 0 0 Z " fill="#FFF1F1" transform="translate(440,638)"/>
<path d="M0 0 C7.26 0 14.52 0 22 0 C22 7.26 22 14.52 22 22 C14.74 22 7.48 22 0 22 C0 14.74 0 7.48 0 0 Z " fill="#FFF1F1" transform="translate(726,616)"/>
<path d="M0 0 C7.26 0 14.52 0 22 0 C22 7.26 22 14.52 22 22 C14.74 22 7.48 22 0 22 C0 14.74 0 7.48 0 0 Z " fill="#956750" transform="translate(704,616)"/>
<path d="M0 0 C7.26 0 14.52 0 22 0 C22 7.26 22 14.52 22 22 C14.74 22 7.48 22 0 22 C0 14.74 0 7.48 0 0 Z " fill="#956750" transform="translate(616,616)"/>
<path d="M0 0 C7.26 0 14.52 0 22 0 C22 7.26 22 14.52 22 22 C14.74 22 7.48 22 0 22 C0 14.74 0 7.48 0 0 Z " fill="#FFF1F1" transform="translate(594,616)"/>
<path d="M0 0 C7.26 0 14.52 0 22 0 C22 7.26 22 14.52 22 22 C14.74 22 7.48 22 0 22 C0 14.74 0 7.48 0 0 Z " fill="#FFF1F1" transform="translate(704,594)"/>
<path d="M0 0 C7.26 0 14.52 0 22 0 C22 7.26 22 14.52 22 22 C14.74 22 7.48 22 0 22 C0 14.74 0 7.48 0 0 Z " fill="#FFF1F1" transform="translate(616,594)"/>
<path d="M0 0 C7.26 0 14.52 0 22 0 C22 7.26 22 14.52 22 22 C14.74 22 7.48 22 0 22 C0 14.74 0 7.48 0 0 Z " fill="#EAAEB0" transform="translate(836,528)"/>
<path d="M0 0 C7.26 0 14.52 0 22 0 C22 7.26 22 14.52 22 22 C14.74 22 7.48 22 0 22 C0 14.74 0 7.48 0 0 Z " fill="#EAAEB0" transform="translate(484,528)"/>
<path d="M0 0 C7.26 0 14.52 0 22 0 C22 7.26 22 14.52 22 22 C14.74 22 7.48 22 0 22 C0 14.74 0 7.48 0 0 Z " fill="#FFF1F1" transform="translate(704,506)"/>
<path d="M0 0 C7.26 0 14.52 0 22 0 C22 7.26 22 14.52 22 22 C14.74 22 7.48 22 0 22 C0 14.74 0 7.48 0 0 Z " fill="#FFF1F1" transform="translate(616,506)"/>
<path d="M0 0 C7.26 0 14.52 0 22 0 C22 7.26 22 14.52 22 22 C14.74 22 7.48 22 0 22 C0 14.74 0 7.48 0 0 Z " fill="#956750" transform="translate(704,484)"/>
<path d="M0 0 C7.26 0 14.52 0 22 0 C22 7.26 22 14.52 22 22 C14.74 22 7.48 22 0 22 C0 14.74 0 7.48 0 0 Z " fill="#956750" transform="translate(616,484)"/>
<path d="M0 0 C7.26 0 14.52 0 22 0 C22 7.26 22 14.52 22 22 C14.74 22 7.48 22 0 22 C0 14.74 0 7.48 0 0 Z " fill="#FFF1F1" transform="translate(594,484)"/>
<path d="M0 0 C7.26 0 14.52 0 22 0 C22 7.26 22 14.52 22 22 C14.74 22 7.48 22 0 22 C0 14.74 0 7.48 0 0 Z " fill="#956750" transform="translate(946,462)"/>
<path d="M0 0 C7.26 0 14.52 0 22 0 C22 7.26 22 14.52 22 22 C14.74 22 7.48 22 0 22 C0 14.74 0 7.48 0 0 Z " fill="#956750" transform="translate(726,462)"/>
<path d="M0 0 C7.26 0 14.52 0 22 0 C22 7.26 22 14.52 22 22 C14.74 22 7.48 22 0 22 C0 14.74 0 7.48 0 0 Z " fill="#956750" transform="translate(594,462)"/>
<path d="M0 0 C7.26 0 14.52 0 22 0 C22 7.26 22 14.52 22 22 C14.74 22 7.48 22 0 22 C0 14.74 0 7.48 0 0 Z " fill="#956750" transform="translate(374,462)"/>
</svg>
